<svg width="20" height="20" viewBox="0 0 20 20" fill="none" xmlns="http://www.w3.org/2000/svg">
<path d="M8.92962 1.78708H2.1439C1.94747 1.78708 1.78676 1.94779 1.78676 2.14422V8.92994C1.78676 9.12637 1.94747 9.28708 2.1439 9.28708H8.92962C9.12605 9.28708 9.28676 9.12637 9.28676 8.92994V2.14422C9.28676 1.94779 9.12605 1.78708 8.92962 1.78708ZM17.8582 1.78708H11.0725C10.876 1.78708 10.7153 1.94779 10.7153 2.14422V8.92994C10.7153 9.12637 10.876 9.28708 11.0725 9.28708H17.8582C18.0546 9.28708 18.2153 9.12637 18.2153 8.92994V2.14422C18.2153 1.94779 18.0546 1.78708 17.8582 1.78708ZM17.8582 10.7157H11.0725C10.876 10.7157 10.7153 10.8764 10.7153 11.0728V17.8585C10.7153 18.0549 10.876 18.2157 11.0725 18.2157H17.8582C18.0546 18.2157 18.2153 18.0549 18.2153 17.8585V11.0728C18.2153 10.8764 18.0546 10.7157 17.8582 10.7157ZM8.03676 14.4657H5.17962V11.6085C5.17962 11.5103 5.09926 11.4299 5.00105 11.4299H3.92962C3.8314 11.4299 3.75105 11.5103 3.75105 11.6085V14.4657H0.893903C0.795689 14.4657 0.715332 14.546 0.715332 14.6442V15.7157C0.715332 15.8139 0.795689 15.8942 0.893903 15.8942H3.75105V18.7514C3.75105 18.8496 3.8314 18.9299 3.92962 18.9299H5.00105C5.09926 18.9299 5.17962 18.8496 5.17962 18.7514V15.8942H8.03676C8.13497 15.8942 8.21533 15.8139 8.21533 15.7157V14.6442C8.21533 14.546 8.13497 14.4657 8.03676 14.4657Z" fill="white"/>
</svg>
