<svg width="20" height="20" viewBox="0 0 20 20" fill="none" xmlns="http://www.w3.org/2000/svg">
<g opacity="0.6">
<path d="M10.0093 7.62902C9.42536 7.62902 8.87849 7.85558 8.46442 8.26965C8.05232 8.68371 7.8238 9.23058 7.8238 9.81457C7.8238 10.3986 8.05232 10.9454 8.46442 11.3595C8.87849 11.7716 9.42536 12.0001 10.0093 12.0001C10.5933 12.0001 11.1402 11.7716 11.5543 11.3595C11.9664 10.9454 12.1949 10.3986 12.1949 9.81457C12.1949 9.23058 11.9664 8.68371 11.5543 8.26965C11.352 8.06585 11.1113 7.90427 10.8461 7.7943C10.5809 7.68432 10.2965 7.62814 10.0093 7.62902ZM18.0621 12.2286L16.7847 11.1368C16.8453 10.7657 16.8765 10.3868 16.8765 10.0099C16.8765 9.63293 16.8453 9.25207 16.7847 8.88293L18.0621 7.79113C18.1586 7.70853 18.2276 7.59851 18.2601 7.4757C18.2925 7.35289 18.2868 7.22312 18.2437 7.10363L18.2261 7.05285C17.8746 6.06982 17.3479 5.15862 16.6715 4.3634L16.6363 4.32238C16.5542 4.2258 16.4447 4.15638 16.3223 4.12325C16.1999 4.09013 16.0704 4.09487 15.9508 4.13683L14.3648 4.70129C13.7789 4.22082 13.1265 3.84191 12.4195 3.57824L12.1129 1.92004C12.0897 1.79512 12.0291 1.6802 11.9391 1.59054C11.8491 1.50088 11.734 1.44073 11.609 1.41808L11.5562 1.40832C10.5406 1.22472 9.47028 1.22472 8.45466 1.40832L8.40193 1.41808C8.27692 1.44073 8.16176 1.50088 8.07176 1.59054C7.98175 1.6802 7.92115 1.79512 7.89802 1.92004L7.58943 3.58605C6.88909 3.85183 6.23668 4.22981 5.65778 4.70519L4.06013 4.13683C3.94053 4.09453 3.81089 4.08963 3.68844 4.12277C3.56599 4.15591 3.45652 4.22553 3.37458 4.32238L3.33943 4.3634C2.66422 5.15947 2.13761 6.07044 1.78474 7.05285L1.76716 7.10363C1.67927 7.34777 1.75154 7.62121 1.9488 7.79113L3.24177 8.89465C3.18122 9.26183 3.15193 9.63683 3.15193 10.0079C3.15193 10.3829 3.18122 10.7579 3.24177 11.1212L1.95271 12.2247C1.85621 12.3073 1.78715 12.4173 1.75471 12.5402C1.72226 12.663 1.72797 12.7927 1.77107 12.9122L1.78864 12.963C2.14216 13.9454 2.66364 14.8536 3.34333 15.6525L3.37849 15.6935C3.46063 15.7901 3.5701 15.8595 3.69248 15.8926C3.81486 15.9257 3.9444 15.921 4.06403 15.879L5.66169 15.3107C6.24372 15.7892 6.89216 16.1681 7.59333 16.4298L7.90193 18.0958C7.92506 18.2207 7.98566 18.3357 8.07566 18.4253C8.16567 18.515 8.28082 18.5751 8.40583 18.5978L8.45857 18.6075C9.48418 18.7921 10.5345 18.7921 11.5601 18.6075L11.6129 18.5978C11.7379 18.5751 11.853 18.515 11.943 18.4253C12.033 18.3357 12.0936 18.2207 12.1168 18.0958L12.4234 16.4376C13.1304 16.172 13.7828 15.795 14.3687 15.3146L15.9547 15.879C16.0743 15.9213 16.2039 15.9262 16.3263 15.8931C16.4488 15.8599 16.5583 15.7903 16.6402 15.6935L16.6754 15.6525C17.355 14.8497 17.8765 13.9454 18.23 12.963L18.2476 12.9122C18.3316 12.67 18.2593 12.3986 18.0621 12.2286ZM10.0093 13.2482C8.11286 13.2482 6.57575 11.7111 6.57575 9.81457C6.57575 7.91808 8.11286 6.38097 10.0093 6.38097C11.9058 6.38097 13.4429 7.91808 13.4429 9.81457C13.4429 11.7111 11.9058 13.2482 10.0093 13.2482Z" fill="white"/>
</g>
</svg>
