<svg width="20" height="20" viewBox="0 0 20 20" fill="none" xmlns="http://www.w3.org/2000/svg">
<path d="M10.0093 7.62897C9.42536 7.62897 8.87849 7.85553 8.46442 8.26959C8.05232 8.68365 7.8238 9.23053 7.8238 9.81451C7.8238 10.3985 8.05232 10.9454 8.46442 11.3594C8.87849 11.7715 9.42536 12.0001 10.0093 12.0001C10.5933 12.0001 11.1402 11.7715 11.5543 11.3594C11.9664 10.9454 12.1949 10.3985 12.1949 9.81451C12.1949 9.23053 11.9664 8.68365 11.5543 8.26959C11.352 8.0658 11.1113 7.90422 10.8461 7.79424C10.5809 7.68427 10.2965 7.62809 10.0093 7.62897ZM18.0621 12.2286L16.7847 11.1368C16.8453 10.7657 16.8765 10.3868 16.8765 10.0098C16.8765 9.63287 16.8453 9.25201 16.7847 8.88287L18.0621 7.79108C18.1586 7.70847 18.2276 7.59845 18.2601 7.47564C18.2925 7.35284 18.2868 7.22306 18.2437 7.10358L18.2261 7.0528C17.8746 6.06977 17.3479 5.15857 16.6715 4.36334L16.6363 4.32233C16.5542 4.22575 16.4447 4.15632 16.3223 4.1232C16.1999 4.09008 16.0704 4.09481 15.9508 4.13678L14.3648 4.70123C13.7789 4.22076 13.1265 3.84186 12.4195 3.57819L12.1129 1.91998C12.0897 1.79507 12.0291 1.68014 11.9391 1.59049C11.8491 1.50083 11.734 1.44068 11.609 1.41803L11.5562 1.40826C10.5406 1.22467 9.47028 1.22467 8.45466 1.40826L8.40193 1.41803C8.27692 1.44068 8.16176 1.50083 8.07176 1.59049C7.98175 1.68014 7.92115 1.79507 7.89802 1.91998L7.58943 3.586C6.88909 3.85177 6.23668 4.22976 5.65778 4.70514L4.06013 4.13678C3.94053 4.09448 3.81089 4.08957 3.68844 4.12272C3.56599 4.15586 3.45652 4.22548 3.37458 4.32233L3.33943 4.36334C2.66422 5.15942 2.13761 6.07039 1.78474 7.0528L1.76716 7.10358C1.67927 7.34772 1.75154 7.62115 1.9488 7.79108L3.24177 8.89459C3.18122 9.26178 3.15193 9.63678 3.15193 10.0079C3.15193 10.3829 3.18122 10.7579 3.24177 11.1212L1.95271 12.2247C1.85621 12.3073 1.78715 12.4173 1.75471 12.5401C1.72226 12.6629 1.72797 12.7927 1.77107 12.9122L1.78864 12.963C2.14216 13.9454 2.66364 14.8536 3.34333 15.6524L3.37849 15.6934C3.46063 15.79 3.5701 15.8594 3.69248 15.8925C3.81486 15.9257 3.9444 15.9209 4.06403 15.879L5.66169 15.3106C6.24372 15.7891 6.89216 16.168 7.59333 16.4297L7.90193 18.0958C7.92506 18.2207 7.98566 18.3356 8.07566 18.4253C8.16567 18.5149 8.28082 18.5751 8.40583 18.5977L8.45857 18.6075C9.48418 18.7921 10.5345 18.7921 11.5601 18.6075L11.6129 18.5977C11.7379 18.5751 11.853 18.5149 11.943 18.4253C12.033 18.3356 12.0936 18.2207 12.1168 18.0958L12.4234 16.4376C13.1304 16.1719 13.7828 15.795 14.3687 15.3145L15.9547 15.879C16.0743 15.9213 16.2039 15.9262 16.3263 15.893C16.4488 15.8599 16.5583 15.7903 16.6402 15.6934L16.6754 15.6524C17.355 14.8497 17.8765 13.9454 18.23 12.963L18.2476 12.9122C18.3316 12.67 18.2593 12.3985 18.0621 12.2286ZM10.0093 13.2481C8.11286 13.2481 6.57575 11.711 6.57575 9.81451C6.57575 7.91803 8.11286 6.38092 10.0093 6.38092C11.9058 6.38092 13.4429 7.91803 13.4429 9.81451C13.4429 11.711 11.9058 13.2481 10.0093 13.2481Z" fill="white"/>
</svg>
