<svg width="16" height="16" viewBox="0 0 16 16" fill="none" xmlns="http://www.w3.org/2000/svg">
<path d="M14.875 0.8125H8.9375C8.76562 0.8125 8.625 0.953125 8.625 1.125V7.0625C8.625 7.23438 8.76562 7.375 8.9375 7.375H14.875C15.0469 7.375 15.1875 7.23438 15.1875 7.0625V1.125C15.1875 0.953125 15.0469 0.8125 14.875 0.8125ZM14.875 8.625H8.9375C8.76562 8.625 8.625 8.76562 8.625 8.9375V14.875C8.625 15.0469 8.76562 15.1875 8.9375 15.1875H14.875C15.0469 15.1875 15.1875 15.0469 15.1875 14.875V8.9375C15.1875 8.76562 15.0469 8.625 14.875 8.625ZM7.0625 0.8125H1.125C0.953125 0.8125 0.8125 0.953125 0.8125 1.125V7.0625C0.8125 7.23438 0.953125 7.375 1.125 7.375H7.0625C7.23437 7.375 7.375 7.23438 7.375 7.0625V1.125C7.375 0.953125 7.23437 0.8125 7.0625 0.8125ZM7.0625 8.625H1.125C0.953125 8.625 0.8125 8.76562 0.8125 8.9375V14.875C0.8125 15.0469 0.953125 15.1875 1.125 15.1875H7.0625C7.23437 15.1875 7.375 15.0469 7.375 14.875V8.9375C7.375 8.76562 7.23437 8.625 7.0625 8.625Z" fill="#5C5F62"/>
</svg>
