<svg width="20" height="20" viewBox="0 0 20 20" fill="none" xmlns="http://www.w3.org/2000/svg">
<path d="M16.25 1.24998H3.75C3.4043 1.24998 3.125 1.52928 3.125 1.87498V12.207C3.125 12.1953 3.13281 12.1875 3.14453 12.1875H7.42773L7.5293 12.6699C7.76562 13.8379 8.80469 14.6875 10 14.6875C11.1953 14.6875 12.2344 13.8379 12.4688 12.6699L12.5703 12.1875H16.8555C16.8672 12.1875 16.875 12.1953 16.875 12.207V1.87498C16.875 1.52928 16.5957 1.24998 16.25 1.24998ZM13.9062 9.62889C13.9062 9.71483 13.8359 9.78514 13.75 9.78514H6.25C6.16406 9.78514 6.09375 9.71483 6.09375 9.62889V8.69139C6.09375 8.60545 6.16406 8.53514 6.25 8.53514H13.75C13.8359 8.53514 13.9062 8.60545 13.9062 8.69139V9.62889ZM13.9062 6.50389C13.9062 6.58983 13.8359 6.66014 13.75 6.66014H6.25C6.16406 6.66014 6.09375 6.58983 6.09375 6.50389V5.56639C6.09375 5.48045 6.16406 5.41014 6.25 5.41014H13.75C13.8359 5.41014 13.9062 5.48045 13.9062 5.56639V6.50389ZM16.8555 13.418H13.5566C13.3301 14.0586 12.9316 14.6347 12.4023 15.0722C11.7285 15.6308 10.875 15.9375 10 15.9375C9.125 15.9375 8.27148 15.6289 7.59766 15.0722C7.07049 14.6352 6.67159 14.0635 6.44336 13.418H3.14453C3.13281 13.418 3.125 13.4101 3.125 13.3984V18.125C3.125 18.4707 3.4043 18.75 3.75 18.75H16.25C16.5957 18.75 16.875 18.4707 16.875 18.125V13.3984C16.875 13.4101 16.8672 13.418 16.8555 13.418Z" fill="white"/>
</svg>
