<svg width="18" height="14" viewBox="0 0 18 14" fill="none" xmlns="http://www.w3.org/2000/svg">
<path d="M17.125 0.125H0.875C0.529297 0.125 0.25 0.404297 0.25 0.75V3.875H17.75V0.75C17.75 0.404297 17.4707 0.125 17.125 0.125ZM0.25 13.25C0.25 13.5957 0.529297 13.875 0.875 13.875H17.125C17.4707 13.875 17.75 13.5957 17.75 13.25V5.59375H0.25V13.25ZM11.5586 9.65625C11.5586 9.57031 11.6289 9.5 11.7148 9.5H14.9375C15.0234 9.5 15.0937 9.57031 15.0937 9.65625V11.0625C15.0937 11.1484 15.0234 11.2188 14.9375 11.2188H11.7148C11.6289 11.2188 11.5586 11.1484 11.5586 11.0625V9.65625Z" fill="#5C5F62"/>
</svg>
