<svg width="18" height="18" viewBox="0 0 18 18" fill="none" xmlns="http://www.w3.org/2000/svg">
<path d="M17.3203 7.96094L16.7422 1.85547C16.7129 1.53906 16.4609 1.28906 16.1445 1.25781L10.0391 0.679688H10.0312C9.96874 0.679688 9.91991 0.699219 9.8828 0.736328L0.736317 9.88281C0.718211 9.90088 0.703846 9.92234 0.694045 9.94597C0.684244 9.9696 0.679199 9.99493 0.679199 10.0205C0.679199 10.0461 0.684244 10.0714 0.694045 10.095C0.703846 10.1187 0.718211 10.1401 0.736317 10.1582L7.84178 17.2637C7.87889 17.3008 7.92772 17.3203 7.98046 17.3203C8.03319 17.3203 8.08202 17.3008 8.11913 17.2637L17.2656 8.11719C17.3047 8.07617 17.3242 8.01953 17.3203 7.96094ZM12.6523 6.55859C11.9629 6.55859 11.4023 5.99805 11.4023 5.30859C11.4023 4.61914 11.9629 4.05859 12.6523 4.05859C13.3418 4.05859 13.9023 4.61914 13.9023 5.30859C13.9023 5.99805 13.3418 6.55859 12.6523 6.55859Z" fill="#5C5F62"/>
</svg>
