<svg width="18" height="18" viewBox="0 0 18 18" fill="none" xmlns="http://www.w3.org/2000/svg">
<path d="M10.4062 5.875H7.59375C7.24805 5.875 6.96875 6.1543 6.96875 6.5V17.125C6.96875 17.4707 7.24805 17.75 7.59375 17.75H10.4062C10.752 17.75 11.0312 17.4707 11.0312 17.125V6.5C11.0312 6.1543 10.752 5.875 10.4062 5.875ZM16.4219 0.25H13.6094C13.2637 0.25 12.9844 0.529297 12.9844 0.875V17.125C12.9844 17.4707 13.2637 17.75 13.6094 17.75H16.4219C16.7676 17.75 17.0469 17.4707 17.0469 17.125V0.875C17.0469 0.529297 16.7676 0.25 16.4219 0.25ZM4.39062 11.5H1.57812C1.23242 11.5 0.953125 11.7793 0.953125 12.125V17.125C0.953125 17.4707 1.23242 17.75 1.57812 17.75H4.39062C4.73633 17.75 5.01562 17.4707 5.01562 17.125V12.125C5.01562 11.7793 4.73633 11.5 4.39062 11.5Z" fill="#5C5F62"/>
</svg>
