<svg width="20" height="20" viewBox="0 0 20 20" fill="none" xmlns="http://www.w3.org/2000/svg">
<path d="M16.25 6.09372H13.5937V5.78122C13.5937 3.79684 11.9844 2.18747 10 2.18747C8.01562 2.18747 6.40625 3.79684 6.40625 5.78122V6.09372H3.75C3.4043 6.09372 3.125 6.37302 3.125 6.71872V17.1875C3.125 17.5332 3.4043 17.8125 3.75 17.8125H16.25C16.5957 17.8125 16.875 17.5332 16.875 17.1875V6.71872C16.875 6.37302 16.5957 6.09372 16.25 6.09372ZM12.1875 6.09372H7.8125V5.78122C7.8125 4.57223 8.79102 3.59372 10 3.59372C11.209 3.59372 12.1875 4.57223 12.1875 5.78122V6.09372Z" fill="white"/>
</svg>
