<svg width="20" height="20" viewBox="0 0 20 20" fill="none" xmlns="http://www.w3.org/2000/svg">
<g opacity="0.6">
<path d="M16.25 6.09375H13.5937V5.78125C13.5937 3.79687 11.9844 2.1875 10 2.1875C8.01562 2.1875 6.40625 3.79687 6.40625 5.78125V6.09375H3.75C3.4043 6.09375 3.125 6.37305 3.125 6.71875V17.1875C3.125 17.5332 3.4043 17.8125 3.75 17.8125H16.25C16.5957 17.8125 16.875 17.5332 16.875 17.1875V6.71875C16.875 6.37305 16.5957 6.09375 16.25 6.09375ZM12.1875 6.09375H7.8125V5.78125C7.8125 4.57227 8.79102 3.59375 10 3.59375C11.209 3.59375 12.1875 4.57227 12.1875 5.78125V6.09375Z" fill="white"/>
</g>
</svg>
