<svg width="14" height="16" viewBox="0 0 14 16" fill="none" xmlns="http://www.w3.org/2000/svg">
<path d="M13.25 7.0625H11.9219V2.6875C11.9219 1.30664 10.8027 0.1875 9.42187 0.1875H4.57812C3.19726 0.1875 2.07812 1.30664 2.07812 2.6875V7.0625H0.75C0.404297 7.0625 0.125 7.3418 0.125 7.6875V15.1875C0.125 15.5332 0.404297 15.8125 0.75 15.8125H13.25C13.5957 15.8125 13.875 15.5332 13.875 15.1875V7.6875C13.875 7.3418 13.5957 7.0625 13.25 7.0625ZM7.54687 11.6914V12.7266C7.54687 12.8125 7.47656 12.8828 7.39062 12.8828H6.60937C6.52344 12.8828 6.45312 12.8125 6.45312 12.7266V11.6914C6.2919 11.5757 6.17156 11.4117 6.10943 11.2232C6.0473 11.0347 6.04658 10.8314 6.10738 10.6425C6.16818 10.4535 6.28736 10.2888 6.44777 10.1719C6.60817 10.055 6.80152 9.992 7 9.992C7.19847 9.992 7.39183 10.055 7.55223 10.1719C7.71263 10.2888 7.83181 10.4535 7.89261 10.6425C7.95341 10.8314 7.95269 11.0347 7.89056 11.2232C7.82844 11.4117 7.7081 11.5757 7.54687 11.6914ZM10.5156 7.0625H3.48437V2.6875C3.48437 2.08398 3.97461 1.59375 4.57812 1.59375H9.42187C10.0254 1.59375 10.5156 2.08398 10.5156 2.6875V7.0625Z" fill="#5C5F62"/>
</svg>
