<svg width="20" height="20" viewBox="0 0 20 20" fill="none" xmlns="http://www.w3.org/2000/svg">
<path d="M10.203 1.39686C6.14719 1.20594 2.77783 4.45408 2.77783 8.47206V10.7637V13.2637C2.77783 14.4602 3.69986 15.4438 4.87093 15.5448C4.97435 17.1717 6.33437 18.4721 7.98617 18.4721H8.20019C8.39059 18.7234 8.68909 18.8887 9.02783 18.8887H10.4862C10.793 18.8887 11.0417 18.64 11.0417 18.3332V17.3609C11.0417 17.0541 10.793 16.8054 10.4862 16.8054H9.02783C8.68909 16.8054 8.39059 16.9707 8.20019 17.2221H7.98617C7.01451 17.2221 6.23498 16.4974 6.13151 15.5554H6.73617C7.08158 15.5554 7.36117 15.2754 7.36117 14.9304V10.7637C7.36117 10.4187 7.08158 10.1387 6.73617 10.1387H4.02783V8.47206C4.02783 5.1492 6.78183 2.48699 10.1436 2.64523C13.2746 2.79245 15.6945 5.49706 15.6945 8.65435V10.1387H12.9862C12.6407 10.1387 12.3612 10.4187 12.3612 10.7637V14.9304C12.3612 15.2754 12.6407 15.5554 12.9862 15.5554H14.6528C15.9166 15.5554 16.9445 14.5271 16.9445 13.2637V10.1387V8.65435C16.9445 4.85664 14.0194 1.57631 10.203 1.39686Z" fill="white"/>
</svg>
