<svg width="16" height="16" viewBox="0 0 16 16" fill="none" xmlns="http://www.w3.org/2000/svg">
<path d="M15.2266 3.31445V0.8125C15.2266 0.466797 14.9473 0.1875 14.6016 0.1875H1.39845C1.05275 0.1875 0.773449 0.466797 0.773449 0.8125V3.31445C0.447278 3.33398 0.187512 3.60547 0.187512 3.9375V6.50977C0.186261 6.98251 0.281984 7.45048 0.468762 7.88477C0.552746 8.08398 0.656262 8.27148 0.773449 8.44922V15.1875C0.773449 15.5312 1.05275 15.8125 1.39845 15.8125H6.75001V12.375H9.25001V15.8125H14.6016C14.9473 15.8125 15.2266 15.5332 15.2266 15.1875V8.44922C15.3456 8.27103 15.4476 8.08205 15.5313 7.88477C15.7168 7.44922 15.8125 6.98633 15.8125 6.50977V3.9375C15.8125 3.60547 15.5527 3.33398 15.2266 3.31445ZM13.8203 14.4082H10.5V11.75C10.5 11.4043 10.2207 11.125 9.87501 11.125H6.12501C5.77931 11.125 5.50001 11.4043 5.50001 11.75V14.4082H2.1797V9.67773C2.23634 9.70508 2.29493 9.73242 2.35548 9.75586C2.79103 9.93945 3.25392 10.0312 3.73048 10.0312C4.20704 10.0312 4.66798 9.93945 5.10548 9.75586C5.37501 9.64258 5.62892 9.49805 5.86134 9.32422C5.86525 9.32227 5.86915 9.32227 5.87306 9.32422C6.1062 9.49879 6.36009 9.64377 6.62892 9.75586C7.06446 9.93945 7.52735 10.0312 8.00392 10.0312C8.48048 10.0312 8.94142 9.93945 9.37892 9.75586C9.64845 9.64258 9.90235 9.49805 10.1348 9.32422C10.1387 9.32227 10.1426 9.32227 10.1465 9.32422C10.3796 9.49879 10.6335 9.64377 10.9024 9.75586C11.3379 9.93945 11.8008 10.0312 12.2774 10.0312C12.7539 10.0312 13.2149 9.93945 13.6524 9.75586C13.7109 9.73047 13.7695 9.70508 13.8281 9.67773V14.4082H13.8203ZM13.8203 3.3125H2.1797V1.59375H13.8203V3.3125Z" fill="#1890FF"/>
</svg>
