<svg width="18" height="20" viewBox="0 0 18 20" fill="none" xmlns="http://www.w3.org/2000/svg">
<path d="M17.482 15.8013H15.6963V14.0156C15.6963 13.9174 15.6159 13.837 15.5177 13.837H14.4463C14.3481 13.837 14.2677 13.9174 14.2677 14.0156V15.8013H12.482C12.3838 15.8013 12.3034 15.8817 12.3034 15.9799V17.0513C12.3034 17.1495 12.3838 17.2299 12.482 17.2299H14.2677V19.0156C14.2677 19.1138 14.3481 19.1942 14.4463 19.1942H15.5177C15.6159 19.1942 15.6963 19.1138 15.6963 19.0156V17.2299H17.482C17.5802 17.2299 17.6606 17.1495 17.6606 17.0513V15.9799C17.6606 15.8817 17.5802 15.8013 17.482 15.8013ZM5.90833 9.69416C5.88824 9.49997 5.87708 9.30354 5.87708 9.10488C5.87708 8.74997 5.91056 8.40398 5.97306 8.06693C5.98869 7.98657 5.94627 7.90398 5.87261 7.8705C5.56904 7.73434 5.29002 7.54684 5.04895 7.31023C4.76489 7.0348 4.54136 6.70318 4.39263 6.33653C4.24389 5.96989 4.17322 5.57626 4.18511 5.18077C4.2052 4.46425 4.49315 3.78345 4.99538 3.27006C5.54672 2.70532 6.28779 2.39729 7.07574 2.40622C7.78779 2.41291 8.47529 2.68747 8.99538 3.17407C9.17172 3.33925 9.32351 3.52229 9.45074 3.71872C9.49538 3.78791 9.58244 3.81693 9.65833 3.79014C10.0512 3.65398 10.4664 3.558 10.8927 3.51336C11.0177 3.49997 11.0891 3.36604 11.0333 3.25443C10.3079 1.81916 8.82574 0.828091 7.11145 0.801305C4.63824 0.763359 2.57574 2.79238 2.57574 5.26559C2.57574 6.66738 3.22083 7.91738 4.23199 8.73657C3.52217 9.0647 2.86815 9.51782 2.30119 10.0848C1.07797 11.3058 0.386007 12.9174 0.341364 14.6384C0.340769 14.6622 0.344947 14.6859 0.353654 14.7081C0.362361 14.7303 0.37542 14.7505 0.392062 14.7675C0.408703 14.7846 0.428591 14.7981 0.450552 14.8074C0.472514 14.8166 0.496105 14.8214 0.519936 14.8214H1.77217C1.86815 14.8214 1.94851 14.7455 1.95074 14.6495C1.99315 13.3549 2.5177 12.1428 3.43958 11.2232C4.09583 10.5669 4.8994 10.1116 5.77663 9.89059C5.86145 9.86604 5.91949 9.78345 5.90833 9.69416ZM15.9641 9.10488C15.9641 6.66291 14.0021 4.67854 11.569 4.64059C9.09583 4.60264 7.03556 6.63166 7.03556 9.10488C7.03556 10.5067 7.68288 11.7567 8.69181 12.5759C7.97464 12.9083 7.32177 13.3647 6.76324 13.9241C5.54002 15.1451 4.84806 16.7567 4.80342 18.4754C4.80282 18.4992 4.807 18.5229 4.81571 18.5451C4.82441 18.5673 4.83747 18.5875 4.85412 18.6046C4.87076 18.6216 4.89064 18.6352 4.91261 18.6444C4.93457 18.6537 4.95816 18.6585 4.98199 18.6584H6.23199C6.32797 18.6584 6.40833 18.5826 6.41056 18.4866C6.45297 17.1919 6.97752 15.9799 7.8994 15.0602C8.86145 14.0982 10.1382 13.5692 11.4998 13.5692C13.9641 13.5692 15.9641 11.5714 15.9641 9.10488ZM13.5199 11.125C12.9798 11.6651 12.2632 11.962 11.4998 11.962C10.7365 11.962 10.0199 11.6651 9.47976 11.125C9.2102 10.8568 8.99721 10.5373 8.85343 10.1853C8.70965 9.83331 8.63799 9.45605 8.6427 9.07586C8.6494 8.34372 8.94181 7.63613 9.45297 7.11157C9.98868 6.56247 10.7052 6.25666 11.4708 6.24773C12.2275 6.24104 12.9619 6.53568 13.5021 7.0647C14.0556 7.60711 14.3592 8.33256 14.3592 9.10488C14.357 9.86827 14.0601 10.5848 13.5199 11.125Z" fill="#1890FF"/>
</svg>
